<svg width="617" height="884" viewBox="0 0 617 884" fill="none" xmlns="http://www.w3.org/2000/svg">
<path d="M152.797 703.343C152.797 703.343 295.022 798.642 327.642 702.184" stroke="#D9D9D9" stroke-width="56.0233" stroke-linecap="round"/>
<path d="M364.825 576.83C364.825 576.83 241.504 556.051 286.278 464.923" stroke="#D9D9D9" stroke-width="56.0233" stroke-linecap="round"/>
<path d="M341.689 576.033C348.993 550.653 374.698 535.42 400.483 541.192C428.831 547.537 446.061 576.581 438.03 604.484L408.967 705.474C401.663 730.854 375.957 746.087 350.173 740.315C321.825 733.97 304.595 704.926 312.625 677.023L341.689 576.033Z" fill="#D9D9D9"/>
<path d="M375.153 577.562C379.929 559.798 397.783 549.003 415.74 553.022C434.998 557.333 446.841 576.906 441.719 595.957L409.965 714.063C405.189 731.828 387.334 742.623 369.377 738.603C350.12 734.293 338.276 714.719 343.398 695.668L375.153 577.562Z" fill="#C9C9C9"/>
<path d="M426.402 582.818C426.402 582.818 593.129 616.648 588.722 514.826" stroke="#D9D9D9" stroke-width="56.0233" stroke-linecap="round"/>
<path d="M273.269 855.424C273.269 855.424 398.992 857.557 382.996 714.458" stroke="#D9D9D9" stroke-width="56.0233" stroke-linecap="round"/>
<g filter="url(#filter0_d_58_40)">
<rect width="84.6592" height="117.662" rx="13.5814" transform="matrix(0.964978 0.262331 -0.253073 0.967447 320.857 555.618)" fill="#D9D9D9"/>
</g>
<rect width="34.4633" height="117.662" rx="13.5814" transform="matrix(0.964978 0.262331 -0.253073 0.967447 369.295 568.786)" fill="#C9C9C9"/>
<rect width="38.8186" height="44.1576" rx="13.5814" transform="matrix(0.964978 0.262331 -0.253073 0.967447 309.719 620.536)" fill="#C9C9C9"/>
<path d="M41.1572 23.8076C41.1572 23.8076 135.336 46.8005 197.114 163.236C258.893 279.671 201.331 301.288 275.992 378.161C327.677 431.377 415.61 457.836 415.61 457.836" stroke="#C9C9C9" stroke-width="10.186" stroke-linecap="round"/>
<path d="M468.594 516.492C476.991 485.209 458.591 452.496 427.497 443.425C396.403 434.354 364.389 452.36 355.992 483.643L350.888 502.659C348.741 510.66 353.447 519.027 361.4 521.347L445.202 545.794C453.154 548.114 461.342 543.509 463.49 535.508L468.594 516.492Z" fill="#D9D9D9"/>
<path d="M446.66 503.016C452.26 482.153 439.989 460.337 419.252 454.287L413.539 452.62C389.647 445.65 365.048 459.486 358.596 483.523L354.68 498.115C352.095 507.744 357.759 517.814 367.329 520.606L398.974 529.837C419.71 535.887 441.06 523.878 446.66 503.016Z" fill="#C9C9C9"/>
<ellipse cx="330.52" cy="601.073" rx="18.5" ry="19.5" transform="rotate(5.44102 330.52 601.073)" fill="#514ADF"/>
<path d="M349.536 599.73C354.727 596.844 360.077 591.332 360.077 591.332C360.077 591.332 350.376 595.36 343.942 597.108C331.369 600.525 310.962 600.757 310.962 600.757C310.962 600.757 324.933 601.703 333.845 600.848C339.481 600.307 348.187 598.557 348.187 598.557C348.187 598.557 340.45 601.163 335.578 603.102C327.037 606.501 314.172 613.077 314.172 613.077C314.172 613.077 325.849 608.737 333.351 606.024C339.054 603.962 344.187 602.705 349.536 599.73Z" fill="#E74A60"/>
<defs>
<filter id="filter0_d_58_40" x="287.28" y="558.703" width="119.072" height="143.452" filterUnits="userSpaceOnUse" color-interpolation-filters="sRGB">
<feFlood flood-opacity="0" result="BackgroundImageFix"/>
<feColorMatrix in="SourceAlpha" type="matrix" values="0 0 0 0 0 0 0 0 0 0 0 0 0 0 0 0 0 0 127 0" result="hardAlpha"/>
<feOffset dy="6.7907"/>
<feGaussianBlur stdDeviation="3.39535"/>
<feComposite in2="hardAlpha" operator="out"/>
<feColorMatrix type="matrix" values="0 0 0 0 0 0 0 0 0 0 0 0 0 0 0 0 0 0 0.25 0"/>
<feBlend mode="normal" in2="BackgroundImageFix" result="effect1_dropShadow_58_40"/>
<feBlend mode="normal" in="SourceGraphic" in2="effect1_dropShadow_58_40" result="shape"/>
</filter>
</defs>
</svg>
