<svg width="713" height="1066" viewBox="0 0 713 1066" fill="none" xmlns="http://www.w3.org/2000/svg">
<path d="M305.705 954.496C305.705 954.496 414.361 888.224 450.931 788.246" stroke="#D9D9D9" stroke-width="53.3496" stroke-linecap="round"/>
<path d="M482.784 661.949C482.784 661.949 347.493 628.084 381.748 566.142" stroke="#D9D9D9" stroke-width="53.3496" stroke-linecap="round"/>
<path d="M457.054 662.154C465.655 634.238 494.439 617.233 522.987 623.203C554.564 629.805 573.33 661.683 563.818 692.56L533.49 791.001C524.89 818.917 496.106 835.922 467.557 829.952C435.98 823.35 417.214 791.472 426.726 760.595L457.054 662.154Z" fill="#D9D9D9"/>
<path d="M552 668.524C552 668.524 695.877 690.552 691.962 624.304" stroke="#D9D9D9" stroke-width="40.4163" stroke-linecap="round"/>
<path d="M475.429 1038.17C475.429 1038.17 515.916 934.012 503.792 803.069" stroke="#D9D9D9" stroke-width="53.3496" stroke-linecap="round"/>
<path d="M474.377 1036.94C474.377 1036.94 512.364 954.686 509.889 845.395" stroke="#C9C9C9" stroke-width="12.9332" stroke-linecap="round"/>
<path d="M476.994 554.435C487.103 522.065 521.711 503.45 554.293 512.858C586.874 522.266 605.09 556.133 594.98 588.503L588.835 608.18C586.249 616.459 577.398 621.22 569.065 618.814L481.255 593.46C472.921 591.053 468.262 582.391 470.848 574.112L476.994 554.435Z" fill="#D9D9D9"/>
<path d="M482.748 543.39C489.49 521.802 512.57 509.388 534.299 515.662L543.526 518.326C570.35 526.072 585.348 553.955 577.024 580.606L573.314 592.486C570.202 602.45 559.55 608.179 549.521 605.284L509.883 593.838C488.154 587.564 476.006 564.978 482.748 543.39Z" fill="#C9C9C9"/>
<g filter="url(#filter0_d_58_74)">
<rect width="93.6422" height="122.68" rx="12.9332" transform="matrix(0.99077 0.13555 -0.159634 0.987176 429.534 598.437)" fill="#D9D9D9"/>
</g>
<rect width="38.1202" height="122.68" rx="12.9332" transform="matrix(0.99077 0.13555 -0.159634 0.987176 484.543 605.963)" fill="#C9C9C9"/>
<rect width="42.9375" height="46.0409" rx="12.9332" transform="matrix(0.99077 0.13555 -0.159634 0.987176 424.817 666.775)" fill="#C9C9C9"/>
<path d="M5.23506 82.1804C5.23506 82.1804 293.424 169.914 337.7 276.503C381.977 383.092 319.058 403.866 383.198 473.755C427.6 522.136 489.468 552.279 489.468 552.279" stroke="#C9C9C9" stroke-width="9.69992" stroke-linecap="round"/>
<path d="M533.083 707.411C534.869 700.587 541.783 696.304 548.683 697.747C555.864 699.249 560.261 706.355 558.402 713.457L533.048 810.322C531.262 817.146 524.348 821.429 517.448 819.986C510.266 818.485 505.87 811.378 507.729 804.276L533.083 707.411Z" fill="#C9C9C9"/>
<g opacity="0.67">
<path d="M594.117 582.703C598.425 567.654 589.717 551.962 574.667 547.654L539.323 537.538C524.274 533.231 508.582 541.939 504.275 556.988C499.967 572.037 508.675 587.729 523.724 592.036L559.069 602.153C574.118 606.46 589.81 597.752 594.117 582.703Z" fill="url(#paint0_radial_58_74)"/>
<path d="M594.117 582.703C598.425 567.654 589.717 551.962 574.667 547.654L539.323 537.538C524.274 533.231 508.582 541.939 504.275 556.988C499.967 572.037 508.675 587.729 523.724 592.036L559.069 602.153C574.118 606.46 589.81 597.752 594.117 582.703Z" fill="url(#paint1_radial_58_74)" fill-opacity="0.27"/>
<path d="M594.117 582.703C598.425 567.654 589.717 551.962 574.667 547.654L539.323 537.538C524.274 533.231 508.582 541.939 504.275 556.988C499.967 572.037 508.675 587.729 523.724 592.036L559.069 602.153C574.118 606.46 589.81 597.752 594.117 582.703Z" fill="url(#paint2_radial_58_74)" fill-opacity="0.39"/>
</g>
<circle cx="449" cy="639" r="19" fill="#514ADF"/>
<path d="M468 635.5C473.047 632.264 478 626.5 478 626.5C478 626.5 468.435 631.24 462 633.5C449.427 637.917 428.5 640 428.5 640C428.5 640 442.935 639.631 452 638C457.733 636.969 466.5 634.5 466.5 634.5C466.5 634.5 458.812 637.7 454 640C445.564 644.033 433 651.5 433 651.5C433 651.5 444.563 646.281 452 643C457.653 640.506 462.799 638.835 468 635.5Z" fill="#E74A60"/>
<defs>
<filter id="filter0_d_58_74" x="405.381" y="600.069" width="121.5" height="143.47" filterUnits="userSpaceOnUse" color-interpolation-filters="sRGB">
<feFlood flood-opacity="0" result="BackgroundImageFix"/>
<feColorMatrix in="SourceAlpha" type="matrix" values="0 0 0 0 0 0 0 0 0 0 0 0 0 0 0 0 0 0 127 0" result="hardAlpha"/>
<feOffset dy="6.46661"/>
<feGaussianBlur stdDeviation="3.23331"/>
<feComposite in2="hardAlpha" operator="out"/>
<feColorMatrix type="matrix" values="0 0 0 0 0 0 0 0 0 0 0 0 0 0 0 0 0 0 0.25 0"/>
<feBlend mode="normal" in2="BackgroundImageFix" result="effect1_dropShadow_58_74"/>
<feBlend mode="normal" in="SourceGraphic" in2="effect1_dropShadow_58_74" result="shape"/>
</filter>
<radialGradient id="paint0_radial_58_74" cx="0" cy="0" r="1" gradientUnits="userSpaceOnUse" gradientTransform="translate(549.196 569.845) rotate(105.972) scale(28.3434 46.7251)">
<stop offset="0.151042" stop-color="#DA62B8"/>
<stop offset="0.854167" stop-color="#B0005F"/>
</radialGradient>
<radialGradient id="paint1_radial_58_74" cx="0" cy="0" r="1" gradientUnits="userSpaceOnUse" gradientTransform="translate(588.408 565.889) rotate(159.864) scale(16.7273 22.4804)">
<stop offset="0.666667" stop-color="white"/>
<stop offset="1" stop-color="white" stop-opacity="0"/>
</radialGradient>
<radialGradient id="paint2_radial_58_74" cx="0" cy="0" r="1" gradientUnits="userSpaceOnUse" gradientTransform="translate(506.743 575.312) rotate(-11.3099) scale(16.0159 26.4028)">
<stop/>
<stop offset="1" stop-opacity="0"/>
</radialGradient>
</defs>
</svg>
