<svg width="88" height="133" viewBox="0 0 88 133" fill="none" xmlns="http://www.w3.org/2000/svg">
<path fill-rule="evenodd" clip-rule="evenodd" d="M62.3543 30.0061V30.0061C62.3543 36.0926 65.152 42.3077 69.1699 46.8796C73.9609 52.3313 76.9371 59.9551 76.9371 68.3923V68.3923C76.9371 73.8791 78.9564 79.3994 82.1241 83.8794C85.7944 89.0703 88 95.7307 88 102.994C88 119.566 76.518 133 62.3543 133C60.3933 133 58.4837 132.742 56.6488 132.255C50.309 130.57 43.2685 129.756 36.7086 129.756V129.756C22.5448 129.756 11.0629 116.322 11.0629 99.75V99.75C11.0629 94.5267 9.12565 89.2978 6.06371 85.0661C2.28097 79.8382 0 73.0753 0 65.689C0 58.6624 2.06427 52.1999 5.52197 47.0863C8.88421 42.114 11.0629 36.0085 11.0629 30.0061V30.0061C11.0629 13.4342 22.5448 0 36.7086 0C50.8723 0 62.3543 13.4342 62.3543 30.0061Z" fill="#5AD33C"/>
<path fill-rule="evenodd" clip-rule="evenodd" d="M58.5785 36.1148V36.1148C58.5785 41.1638 60.8907 46.3072 64.1185 50.1897C67.8498 54.6777 70.1615 60.9063 70.1615 67.7912V67.7912C70.1615 72.3386 71.8165 76.9069 74.3549 80.6799C77.2261 84.9475 78.9485 90.4015 78.9485 96.3446C78.9485 110.02 69.8286 121.106 58.5785 121.106C57.0025 121.106 55.4683 120.888 53.9951 120.476C48.9951 119.079 43.4001 118.429 38.2085 118.429V118.429C26.9584 118.429 17.8385 107.343 17.8385 93.6677V93.6677C17.8385 89.3392 16.2517 85.012 13.7963 81.4473C10.8344 77.1476 9.05139 71.6072 9.05139 65.5605C9.05139 59.8164 10.6604 54.5291 13.3605 50.3284C16.051 46.1426 17.8385 41.0906 17.8385 36.1148V36.1148C17.8385 22.4396 26.9584 11.3537 38.2085 11.3537C49.4585 11.3537 58.5785 22.4396 58.5785 36.1148Z" fill="#060606" fill-opacity="0.21"/>
<path d="M60.8954 98.6137C57.4062 96.3259 52.7853 93.8734 48.4877 92.4726C41.7507 90.2768 49.6809 86.9411 52.6103 84.4715C54.1278 83.1922 53.6909 81.485 53.6909 79.8953C53.6909 77.9327 54.2602 74.9046 52.6103 73.2818C51.6007 72.2889 48.7056 71.4689 47.207 70.8609C43.1961 69.2336 40.0497 66.8064 36.0801 65.1331C30.5284 62.793 33.3059 56.1053 34.239 52.3196C35.0432 49.0569 36.4244 45.83 37.8412 42.6947C38.2124 41.8733 37.8506 36.7725 38.7217 36.2584C39.8 35.6221 49.4394 43.8809 48.4877 46.5329C47.5367 49.1831 40.0951 48.0133 37.1208 48.6586C28.99 50.4226 32.6496 55.9788 34.9594 60.0254C36.2454 62.2784 35.3405 64.2527 38.1614 65.7827C39.7624 66.6511 41.6848 67.1907 43.2445 68.0856C44.6217 68.8757 46.1416 69.8362 47.9274 69.9161C51.3683 70.0699 50.8092 72.5119 50.8092 74.5809C50.8092 80.3549 42.5151 81.3064 36.5604 82.9658C30.7805 84.5765 29.8825 80.185 25.5937 79.4819C22.9345 79.046 23.4324 74.0483 23.4324 72.6028C23.4324 69.8247 24.2038 69.2187 27.715 68.0856C31.2749 66.9367 35.3708 69.972 36.4804 66.6979C38.0468 62.0761 37.7266 60.2586 31.9176 57.4568C27.6266 55.3873 26.3141 53.4727 26.3141 49.6034C26.3141 48.7168 25.4851 42.9309 27.5149 42.9309C29.2847 42.9309 33.8556 45.0462 34.9594 46.1195C37.7768 48.859 39.9683 50.4226 41.4834 53.5892C42.9844 56.7263 43.751 61.3223 43.6047 64.7198C43.4421 68.4985 39.9115 72.7366 38.5617 76.4705C38.1947 77.4854 37.2184 78.562 36.4404 79.4229C35.1014 80.9045 35.5917 83.0275 35.2796 84.7373C34.5856 88.5406 34.1285 90.9355 37.8412 93.8307C39.3609 95.0158 41.5702 96.8624 42.5241 98.348C44.7946 101.884 61.1726 104.009 63.0567 99.1451C63.7354 97.3928 51.9936 91.7302 49.9286 90.6421C46.0839 88.6163 41.4099 84.5987 40.803 81.0172C40.451 78.9401 39.8683 74.9487 40.8831 72.9276C41.7709 71.1593 46.6905 69.0197 48.5678 67.7608C52.6577 65.0181 59.8713 59.2347 55.1318 55.3016C53.8773 54.2605 51.2482 52.0783 49.3683 51.8472C47.6933 51.6413 48.7379 50.4849 46.4865 51.4339C41.0798 53.7129 36.0127 56.6637 31.037 59.4054C29.5587 60.22 25.7609 61.9006 24.9533 63.5388C23.8775 65.7211 21.9476 68.9185 22.872 71.2742C23.5636 73.0366 26.6335 74.4042 27.8351 76.0571C28.6866 77.2285 29.6314 78.3388 30.4767 79.4819C32.1564 81.7535 33.435 84.8212 37.0807 85.8297C39.6932 86.5523 42.8027 89.2435 42.8843 91.4098C42.9421 92.9451 41.196 96.4441 38.9219 96.9603C34.7916 97.8978 43.28 103.702 45.726 104.755C46.7605 105.2 47.4963 106.781 48.968 106.467C54.442 105.298 58.1725 101.36 63.6971 100.68C68.9684 100.032 63.2137 97.6087 61.6158 97.0194" stroke="#2B6B2A" stroke-width="4" stroke-linecap="round"/>
</svg>
