<svg width="138" height="95" viewBox="0 0 138 95" fill="none" xmlns="http://www.w3.org/2000/svg">
<path fill-rule="evenodd" clip-rule="evenodd" d="M33.2805 27.2056V27.2056C39.3584 27.5293 45.7135 25.0662 50.4927 21.2972C56.1915 16.8029 63.9629 14.2365 72.3881 14.6853V14.6853C77.8671 14.9772 83.487 13.2544 88.1292 10.3295C93.5079 6.94053 100.276 5.09235 107.529 5.47871C124.078 6.36025 136.882 18.5406 136.129 32.6843C136.024 34.6425 135.666 36.5357 135.081 38.342C133.061 44.5832 131.874 51.5705 131.525 58.1211V58.1211C130.772 72.2648 116.746 83.0159 100.197 82.1344V82.1344C94.9813 81.8565 89.6568 83.5128 85.2682 86.3453C79.8465 89.8446 72.9718 91.7626 65.596 91.3697C58.5793 90.9959 52.2358 88.5908 47.3134 84.866C42.527 81.244 36.546 78.7437 30.5521 78.4244V78.4244C14.0037 77.5428 1.19926 65.3625 1.9527 51.2188C2.70613 37.0751 16.7321 26.324 33.2805 27.2056Z" fill="#3C4BD3"/>
<path fill-rule="evenodd" clip-rule="evenodd" d="M39.1797 31.3009V31.3009C44.2216 31.5695 49.4807 29.5342 53.5294 26.5175C58.2095 23.0302 64.5523 21.0531 71.4274 21.4194V21.4194C75.9684 21.6613 80.6183 20.2515 84.521 17.9175C88.9353 15.2774 94.4732 13.8475 100.408 14.1636C114.064 14.8911 124.649 24.5878 124.05 35.822C123.966 37.3958 123.668 38.9162 123.178 40.3654C121.517 45.284 120.57 50.8365 120.294 56.0207V56.0207C119.695 67.2549 108.14 75.7722 94.484 75.0448V75.0448C90.1616 74.8145 85.7562 76.1688 82.0659 78.4312C77.6147 81.1601 71.9873 82.6459 65.9492 82.3242C60.2132 82.0187 55.019 80.1307 50.9678 77.211C46.9311 74.3017 41.9814 72.248 37.0126 71.9833V71.9833C23.3568 71.2558 12.7716 61.5591 13.3701 50.3249C13.9685 39.0908 25.5239 30.5735 39.1797 31.3009Z" fill="#060606" fill-opacity="0.21"/>
<path d="M105.017 25.1098C102.317 28.8393 99.3711 33.8122 97.5906 38.4882C94.7995 45.8184 91.6309 36.8462 89.1114 33.46C87.8063 31.7058 85.9194 32.0902 84.1864 31.9979C82.0469 31.884 78.7794 31.078 76.9131 32.8101C75.7711 33.87 74.7064 37.0272 73.9552 38.6509C71.9448 42.9964 69.1132 46.3384 67.0551 50.6355C64.1766 56.6453 57.0498 53.1823 52.978 51.9295C49.4685 50.8498 46.0322 49.1334 42.6979 47.383C41.8243 46.9244 36.2424 47.0287 35.7333 46.0345C35.1032 44.8039 44.6749 34.6129 47.5098 35.8204C50.3428 37.027 48.6288 45.1969 49.1569 48.5269C50.6004 57.6299 56.8732 53.9014 61.4209 51.5795C63.9528 50.2868 66.0516 51.4031 67.8859 48.3693C68.927 46.6474 69.6286 44.5508 70.6961 42.8761C71.6387 41.3975 72.7754 39.7707 72.9678 37.7986C73.3384 33.9985 75.9675 34.7592 78.223 34.8794C84.5175 35.2147 85.0657 44.4513 86.5235 51.1394C87.9386 57.6313 83.0982 58.3703 82.0789 63.0771C81.4469 65.9955 76.028 65.1541 74.4522 65.0702C71.4237 64.9088 70.8086 64.0196 69.7804 60.067C68.7379 56.0596 72.2883 51.7018 68.7845 50.2833C63.8385 48.281 61.8382 48.5299 58.4414 54.7976C55.9322 59.4274 53.7676 60.7692 49.5496 60.5445C48.583 60.493 42.2267 61.0747 42.3464 58.8278C42.4508 56.8687 45.0263 51.9316 46.2615 50.772C49.414 47.8123 51.2478 45.4771 54.7891 43.9838C58.2975 42.5044 63.353 41.9227 67.0482 42.2819C71.1579 42.6814 75.5698 46.8358 79.5607 48.5469C80.6455 49.012 81.7616 50.1553 82.6542 51.0666C84.1903 52.6349 86.5336 52.2154 88.3791 52.6601C92.4844 53.6493 95.0682 54.2944 98.4434 50.3526C99.8248 48.7391 101.968 46.4007 103.644 45.431C107.632 43.123 110.915 25.1161 105.724 22.7481C103.853 21.895 96.988 34.5641 95.6801 36.7868C93.245 40.9252 88.5896 45.8659 84.6495 46.3298C82.3643 46.5988 77.9788 47.0121 75.8353 45.7714C73.9601 44.6859 71.9177 39.1157 70.656 36.9645C67.9073 32.2778 62.0278 23.9566 57.4607 28.9747C56.2519 30.3029 53.718 33.0866 53.3551 35.1542C53.0319 36.9965 51.8328 35.773 52.7346 38.3203C54.9002 44.4378 57.8182 50.2183 60.5137 55.8855C61.3145 57.5693 62.9226 61.871 64.6609 62.8602C66.9764 64.1777 70.3482 66.4999 72.9708 65.6133C74.9328 64.9501 76.6048 61.6312 78.4776 60.3971C79.8048 59.5224 81.0708 58.541 82.3669 57.6717C84.9422 55.9443 88.3618 54.707 89.6762 50.7298C90.6181 47.8798 93.7352 44.5939 96.1015 44.6294C97.7787 44.6545 101.49 46.7906 101.919 49.338C102.697 53.9646 109.525 44.9051 110.817 42.2586C111.363 41.1393 113.131 40.4166 112.875 38.7692C111.924 32.6418 107.85 28.2834 107.435 22.1283C107.039 16.2554 104.058 22.485 103.321 24.2197" stroke="white" stroke-width="4" stroke-linecap="round"/>
<path d="M99.0169 34.1098C96.3171 37.8393 93.3711 42.8122 91.5906 47.4882C88.7995 54.8184 85.6309 45.8462 83.1114 42.46C81.8063 40.7058 79.9194 41.0902 78.1864 40.9979C76.0469 40.884 72.7794 40.078 70.9131 41.8101C69.7711 42.87 68.7064 46.0272 67.9552 47.6509C65.9448 51.9964 63.1132 55.3384 61.0551 59.6355C58.1766 65.6453 51.0498 62.1823 46.978 60.9295C43.4685 59.8498 40.0322 58.1334 36.6979 56.383C35.8243 55.9244 30.2424 56.0287 29.7333 55.0345C29.1032 53.8039 38.6749 43.6129 41.5098 44.8204C44.3428 46.027 42.6288 54.1969 43.1569 57.5269C44.6004 66.6299 50.8732 62.9014 55.4209 60.5795C57.9528 59.2868 60.0516 60.4031 61.8859 57.3693C62.927 55.6474 63.6286 53.5508 64.6961 51.8761C65.6387 50.3975 66.7754 48.7707 66.9678 46.7986C67.3384 42.9985 69.9675 43.7592 72.223 43.8794C78.5175 44.2147 79.0657 53.4513 80.5235 60.1394C81.9386 66.6313 77.0982 67.3703 76.0789 72.0771C75.4469 74.9955 70.028 74.1541 68.4522 74.0702C65.4237 73.9088 64.8086 73.0196 63.7804 69.067C62.7379 65.0596 66.2883 60.7018 62.7845 59.2833C57.8385 57.281 55.8382 57.5299 52.4414 63.7976C49.9322 68.4274 47.7676 69.7692 43.5496 69.5445C42.583 69.493 36.2267 70.0747 36.3464 67.8278C36.4508 65.8687 39.0263 60.9316 40.2615 59.772C43.414 56.8123 45.2478 54.4771 48.7891 52.9838C52.2975 51.5044 57.353 50.9227 61.0482 51.2819C65.1579 51.6814 69.5698 55.8358 73.5607 57.5469C74.6455 58.012 75.7616 59.1553 76.6542 60.0666C78.1903 61.6349 80.5336 61.2154 82.3791 61.6601C86.4844 62.6493 89.0682 63.2944 92.4434 59.3526C93.8248 57.7391 95.9682 55.4007 97.6439 54.431C101.632 52.123 104.915 34.1161 99.7237 31.7481C97.8535 30.895 90.988 43.5641 89.6801 45.7868C87.245 49.9252 82.5896 54.8659 78.6495 55.3298C76.3643 55.5988 71.9788 56.0121 69.8353 54.7714C67.9601 53.6859 65.9177 48.1157 64.656 45.9645C61.9073 41.2778 56.0278 32.9566 51.4607 37.9747C50.2519 39.3029 47.718 42.0866 47.3551 44.1542C47.0319 45.9965 45.8328 44.773 46.7346 47.3203C48.9002 53.4378 51.8182 59.2183 54.5137 64.8855C55.3145 66.5693 56.9226 70.871 58.6609 71.8602C60.9764 73.1777 64.3482 75.4999 66.9708 74.6133C68.9328 73.9501 70.6048 70.6312 72.4776 69.3971C73.8048 68.5224 75.0708 67.541 76.3669 66.6717C78.9422 64.9443 82.3618 63.707 83.6762 59.7298C84.6181 56.8798 87.7352 53.5939 90.1015 53.6294C91.7787 53.6545 95.4902 55.7906 95.9188 58.338C96.6972 62.9646 103.525 53.9051 104.817 51.2586C105.363 50.1393 107.131 49.4166 106.875 47.7692C105.924 41.6418 101.85 37.2834 101.435 31.1283C101.039 25.2554 98.0581 31.485 97.3214 33.2197" stroke="white" stroke-width="4" stroke-linecap="round"/>
</svg>
