<svg width="236" height="132" viewBox="0 0 236 132" fill="none" xmlns="http://www.w3.org/2000/svg">
<path d="M73.8445 93.7509C58.0638 100.203 63.1741 121.432 51.3515 117.185C45.392 124.872 46.8 95.9633 47.3557 84.5517C38.0226 64.4745 60.0183 67.0626 67.3713 69.6067C74.7242 72.1509 90.5018 86.9403 73.8445 93.7509Z" fill="#A7A1A1"/>
<path d="M193.203 82.7536C180.841 94.4941 193.309 112.42 180.752 112.755C177.989 122.081 168.807 94.6325 165.182 83.7976C149.197 68.478 170.632 62.9048 178.407 62.6062C186.182 62.3076 206.252 70.3608 193.203 82.7536Z" fill="#A7A1A1"/>
<path d="M136.915 91.2477C125.007 103.449 138.146 120.888 125.61 121.699C123.203 131.124 112.986 104.044 108.953 93.354C92.3988 78.6518 113.607 72.2695 121.365 71.6762C129.123 71.0829 149.484 78.3688 136.915 91.2477Z" fill="#A7A1A1"/>
<path d="M2.98514 51.6749C2.98514 51.6749 4.57718 49.9186 14.1294 46.0132C23.6815 42.1078 20.1791 53.0388 20.1791 53.0388L24 69.0192C24 69.0192 16.995 69.7167 14.1294 69.0192C11.2637 68.3218 4.9959 69.0192 4.9959 69.0192L2.98514 51.6749Z" fill="#A7A1A1"/>
<path fill-rule="evenodd" clip-rule="evenodd" d="M130.619 105.349C139.474 104.32 147.343 100.338 153.539 94.373C154.882 93.0799 156.897 92.7491 158.614 93.4754C162.869 95.2751 167.434 96.0193 172.083 95.4793C175.544 95.0773 178.796 93.9933 181.771 92.3405C183.084 91.6111 184.673 91.5409 186.05 92.138C189.908 93.8099 194.151 94.5148 198.506 94.0091C212.997 92.3258 223.224 77.869 221.348 61.7188C219.742 47.897 209.793 37.3144 197.873 35.6053C196.369 35.3897 195.023 34.4962 194.329 33.1444C187.528 19.8887 175.34 11.6033 162.514 13.0932C158.368 13.5747 154.521 15.0351 151.092 17.2795C149.546 18.2917 147.526 18.3417 145.976 17.3353C138.249 12.3187 129.115 9.88061 119.657 10.9791C113.069 11.7444 107.026 14.1447 101.812 17.7804C100.511 18.6876 98.8226 18.8426 97.3644 18.2187C92.6311 16.1934 87.5129 15.3492 82.2883 15.9561C77.1231 16.5561 72.3841 18.5127 68.2736 21.5104C66.7601 22.6142 64.716 22.7091 63.0629 21.8277C59.4832 19.919 55.5654 19.06 51.5701 19.5241C38.3208 21.0631 29.2364 36.5696 31.2795 54.1589C33.3225 71.7483 45.7194 84.7597 58.9687 83.2207V83.2207C59.5869 83.1489 60.2015 83.4176 60.5479 83.9347C68.0314 95.1074 79.7635 101.749 92.0873 100.318C94.733 100.011 97.2668 99.3474 99.6616 98.3707C101.072 97.7952 102.688 97.926 103.958 98.7677C111.757 103.936 121.022 106.463 130.619 105.349Z" fill="#D9D9D9"/>
<ellipse rx="4.82949" ry="10.4763" transform="matrix(0.976543 -0.21532 0.11516 0.993347 5.92266 59.9954)" fill="#D9D9D9"/>
<ellipse rx="2.25376" ry="6.9842" transform="matrix(0.976543 -0.21532 0.11516 0.993347 5.92268 59.9954)" fill="#9C9696"/>
<ellipse cx="43" cy="49.7562" rx="23" ry="28.5" fill="#D9D9D9"/>
<path d="M98.9147 97.2477C87.007 109.449 100.146 126.888 87.6101 127.699C85.2034 137.124 74.9864 110.044 70.9532 99.354C54.3988 84.6518 75.6068 78.2695 83.3648 77.6762C91.1228 77.0829 111.484 84.3688 98.9147 97.2477Z" fill="#D9D9D9"/>
<path d="M217.833 76.911C211.166 92.6024 229.74 104.083 218.354 109.389C219.532 119.044 200.182 97.5203 192.543 89.024C171.781 81.3341 189.225 67.6884 196.239 64.3193C203.252 60.9503 224.869 60.3479 217.833 76.911Z" fill="#D9D9D9"/>
<path d="M159.915 82.2477C148.007 94.4488 161.146 111.888 148.61 112.699C146.203 122.124 135.986 95.0436 131.953 84.354C115.399 69.6518 136.607 63.2695 144.365 62.6762C152.123 62.0829 172.484 69.3688 159.915 82.2477Z" fill="#D9D9D9"/>
<ellipse cx="23.5" cy="39.7562" rx="8.5" ry="10.5" fill="#D9D9D9"/>
<ellipse cx="27" cy="54.7562" rx="9" ry="10.5" fill="#D9D9D9"/>
<ellipse cx="29.5001" cy="67.7562" rx="7.5" ry="10.5" transform="rotate(-22.0284 29.5001 67.7562)" fill="#D9D9D9"/>
</svg>
